<?xml version="1.0" encoding="UTF-8" standalone="no"?>
<svg
   height="81"
   style="line-height:1"
   viewBox="0 0 54 81"
   width="54"
   version="1.1"
   id="svg5"
   sodipodi:docname="figma-color.svg"
   inkscape:version="1.4.2 (f4327f4, 2025-05-13)"
   xmlns:inkscape="http://www.inkscape.org/namespaces/inkscape"
   xmlns:sodipodi="http://sodipodi.sourceforge.net/DTD/sodipodi-0.dtd"
   xmlns="http://www.w3.org/2000/svg"
   xmlns:svg="http://www.w3.org/2000/svg"
   xmlns:rdf="http://www.w3.org/1999/02/22-rdf-syntax-ns#"
   xmlns:cc="http://creativecommons.org/ns#"
   xmlns:dc="http://purl.org/dc/elements/1.1/">
  <defs
     id="defs5" />
  <sodipodi:namedview
     id="namedview5"
     pagecolor="#ffffff"
     bordercolor="#000000"
     borderopacity="0.25"
     inkscape:showpageshadow="2"
     inkscape:pageopacity="0.0"
     inkscape:pagecheckerboard="0"
     inkscape:deskcolor="#d1d1d1"
     inkscape:zoom="4.2447917"
     inkscape:cx="-2.002454"
     inkscape:cy="17.315337"
     inkscape:window-width="2560"
     inkscape:window-height="1017"
     inkscape:window-x="-8"
     inkscape:window-y="-8"
     inkscape:window-maximized="1"
     inkscape:current-layer="svg5" />
  <title
     id="title1">Figma</title>
  <g
     id="g6"
     transform="matrix(3.3333333,0,0,3.3333333,-13,0.5000004)">
    <path
       d="m 12,0 v 8 h 4 a 4,4 0 0 0 0,-8 z"
       fill="#ff7237"
       id="path2" />
    <path
       d="m 4,4 a 4,4 0 0 0 4,4 h 4 V 0 H 8 A 4,4 0 0 0 4,4 Z"
       fill="#ff3737"
       id="path4" />
    <g
       id="g5">
      <path
         d="m 4,20 a 4,4 0 0 1 4,-4 h 4 v 4 a 4,4 0 0 1 -8,0 z"
         fill="#24cb71"
         id="path1" />
      <path
         d="m 15.967,16 a 4,4 0 1 0 0,-8 4,4 0 0 0 0,8 z"
         fill="#00b6ff"
         id="path3" />
      <path
         d="m 4,12 a 4,4 0 0 0 4,4 h 4 V 8 H 8 a 4,4 0 0 0 -4,4 z"
         fill="#874fff"
         id="path5" />
    </g>
  </g>
  <metadata
     id="metadata6">
    <rdf:RDF>
      <cc:Work
         rdf:about="">
        <dc:title>Figma</dc:title>
      </cc:Work>
    </rdf:RDF>
  </metadata>
</svg>
