<?xml version="1.0" encoding="UTF-8" standalone="no"?>
<svg
   height="81"
   style="line-height:1"
   viewBox="0 0 70 81"
   width="70"
   version="1.1"
   id="svg8"
   sodipodi:docname="vertexai-color.svg"
   inkscape:version="1.4.2 (f4327f4, 2025-05-13)"
   xmlns:inkscape="http://www.inkscape.org/namespaces/inkscape"
   xmlns:sodipodi="http://sodipodi.sourceforge.net/DTD/sodipodi-0.dtd"
   xmlns="http://www.w3.org/2000/svg"
   xmlns:svg="http://www.w3.org/2000/svg"
   xmlns:rdf="http://www.w3.org/1999/02/22-rdf-syntax-ns#"
   xmlns:cc="http://creativecommons.org/ns#"
   xmlns:dc="http://purl.org/dc/elements/1.1/">
  <defs
     id="defs8" />
  <sodipodi:namedview
     id="namedview8"
     pagecolor="#ffffff"
     bordercolor="#000000"
     borderopacity="0.25"
     inkscape:showpageshadow="2"
     inkscape:pageopacity="0.0"
     inkscape:pagecheckerboard="0"
     inkscape:deskcolor="#d1d1d1"
     inkscape:zoom="4.2447917"
     inkscape:cx="8.1276073"
     inkscape:cy="24.853988"
     inkscape:window-width="2560"
     inkscape:window-height="1017"
     inkscape:window-x="-8"
     inkscape:window-y="-8"
     inkscape:window-maximized="1"
     inkscape:current-layer="svg8" />
  <title
     id="title1">VertexAI</title>
  <g
     id="g8"
     transform="matrix(3.3331154,0,0,3.3331154,-4.992265,0.50189669)">
    <path
       d="m 11.995,20.216 a 1.8925,1.8925 0 1 0 0,3.785 1.8925,1.8925 0 0 0 0,-3.785 z m 0,2.806 a 0.927,0.927 0 1 1 0.927,-0.914 0.914,0.914 0 0 1 -0.927,0.914 z"
       fill="#4285f4"
       id="path1" />
    <path
       clip-rule="evenodd"
       d="m 21.687,14.144 c 0.237,0.038 0.452,0.16 0.605,0.344 a 0.978,0.978 0 0 1 -0.18,1.3 l -8.24,6.082 a 1.892,1.892 0 0 0 -1.147,-1.508 l 8.28,-6.08 a 0.991,0.991 0 0 1 0.682,-0.138 z"
       fill="#669df6"
       fill-rule="evenodd"
       id="path2" />
    <path
       clip-rule="evenodd"
       d="M 10.122,21.842 1.905,15.776 A 0.952,0.952 0 0 1 1.699,14.489 0.978,0.978 0 0 1 2.986,14.283 l 8.28,6.08 a 1.893,1.893 0 0 0 -1.144,1.479 z"
       fill="#aecbfa"
       fill-rule="evenodd"
       id="path3" />
    <path
       d="M 4.273,4.475 A 0.978,0.978 0 0 1 3.308,3.51 V 1.09 a 0.978,0.978 0 1 1 1.943,0 V 3.51 A 0.978,0.978 0 0 1 4.273,4.475 Z m -0.026,8.559 a 0.978,0.978 0 1 0 0,-1.956 0.978,0.978 0 0 0 0,1.956 z m 0,-2.844 a 0.978,0.978 0 1 0 0,-1.956 0.978,0.978 0 0 0 0,1.956 z m 0,-2.858 a 0.978,0.978 0 1 0 0,-1.956 0.978,0.978 0 0 0 0,1.956 z"
       fill="#aecbfa"
       id="path4" />
    <path
       d="M 19.718,7.307 A 0.978,0.978 0 0 1 18.753,6.328 v -2.42 a 0.965,0.965 0 0 1 1.93,0 v 2.42 a 0.964,0.964 0 0 1 -0.965,0.979 z m 0.025,5.74 a 0.978,0.978 0 1 0 0,-1.956 0.978,0.978 0 0 0 0,1.956 z m 0,-2.896 a 0.978,0.978 0 1 0 0,-1.956 0.978,0.978 0 0 0 0,1.956 z m 0,-8.083 a 0.978,0.978 0 1 0 0,-1.956 0.978,0.978 0 0 0 0,1.956 z"
       fill="#4285f4"
       id="path5" />
    <path
       d="M 11.995,15.917 A 0.978,0.978 0 0 1 11.03,14.952 v -2.459 a 0.978,0.978 0 0 1 1.943,0 v 2.433 a 0.976,0.976 0 0 1 -0.978,0.991 z m 0,2.845 a 0.978,0.978 0 1 0 0,-1.956 0.978,0.978 0 0 0 0,1.956 z m 0,-8.122 a 0.978,0.978 0 1 0 0,-1.956 0.978,0.978 0 0 0 0,1.956 z m 0,-2.857 a 0.978,0.978 0 1 0 0,-1.956 0.978,0.978 0 0 0 0,1.956 z"
       fill="#669df6"
       id="path6" />
    <path
       d="M 15.856,10.177 A 0.978,0.978 0 0 1 14.891,9.212 v -2.42 a 0.977,0.977 0 0 1 1.702,-0.763 0.979,0.979 0 0 1 0.241,0.763 v 2.42 a 0.978,0.978 0 0 1 -0.978,0.965 z m 0.013,-5.264 a 0.978,0.978 0 1 0 0,-1.956 0.978,0.978 0 0 0 0,1.956 z m 0,10.94 a 0.978,0.978 0 1 0 0,-1.956 0.978,0.978 0 0 0 0,1.956 z m 0,-2.857 a 0.978,0.978 0 1 0 0,-1.956 0.978,0.978 0 0 0 0,1.956 z"
       fill="#4285f4"
       id="path7" />
    <path
       d="m 8.121,15.853 a 0.978,0.978 0 1 0 0,-1.956 0.978,0.978 0 0 0 0,1.956 z m 0,-8.07 a 0.978,0.978 0 1 0 0,-1.956 0.978,0.978 0 0 0 0,1.956 z m 0,-2.87 a 0.9785,0.9785 0 1 0 0,-1.957 0.9785,0.9785 0 0 0 0,1.957 z m 0.013,8.083 A 0.978,0.978 0 0 1 7.156,12.056 V 9.611 a 0.965,0.965 0 0 1 1.93,0 v 2.445 a 0.966,0.966 0 0 1 -0.952,0.94 z"
       fill="#aecbfa"
       id="path8" />
  </g>
  <metadata
     id="metadata8">
    <rdf:RDF>
      <cc:Work
         rdf:about="">
        <dc:title>VertexAI</dc:title>
      </cc:Work>
    </rdf:RDF>
  </metadata>
</svg>
